<?xml version="1.0" encoding="utf-8"?>
<?xml-stylesheet type="text/xsl" href="rss1.xsl"?>
<rss version="2.0" xmlns:atom="http://www.w3.org/2005/Atom" xmlns:content="http://purl.org/rss/1.0/modules/content/" xmlns:dc="http://purl.org/dc/elements/1.1/" xmlns:media="http://search.yahoo.com/mrss/">
<channel>
 <title>Getty</title>
 <link>http://www.gettyimg.com/</link>
 <atom:link href="http://www.gettyimg.com/" rel="self" type="application/rss+xml" />

 
                <item>
                <title><![CDATA[【SD】Usher Feat. Will.I.Am - OMG (Extended Version) (vob)]]></title>
                <link><![CDATA[https://sharemania.us/threads/usher-feat-will-i-am-omg-extended-version-vob.237454/]]></link>
                <description><![CDATA[<article>
<blockquote class="messageText SelectQuoteContainer ugc baseHtml">
<img src="https://i.imgur.com/bGjJyPl.jpeg" class="bbCodeImage LbImage" alt="[​IMG]" data-url="https://i.imgur.com/bGjJyPl.jpeg" style=""> <br>
From Album: <a href="http://www.vip-files.net/hq_music_video/en/dvd/dtvideos_extended_vol_01/" target="_blank" class="externalLink" rel="nofollow">DTVideos Extended Vol.01</a><br>
Artist/Group: <b>Usher Feat. Will.I.Am</b> <a href="http://www.vip-files.net/will_i_am_music-videos_vob/" target="_blank" class="externalLink" rel="nofollow">Will.I.Am</a> <a href="http://www.vip-files.net/usher_music-videos_vob/" target="_blank" class="externalLink" rel="nofollow">Usher</a><br>
Music Video: <a href="http://www.vip-files.net/hq_music_video/en/dvd/dtvideos_extended_vol_01/Usher-Feat-Will-I-Am-video-vob-OMG-Extended-Version_41447.html" target="_blank" class="externalLink" rel="nofollow">OMG (Extended Version)</a><br>
Release: <a href="http://www.vip-files.net/hq_music_video/en/release/2010/" target="_blank" class="externalLink" rel="nofollow">2010</a><br>
Style: <a href="http://www.vip-files.net/hq_music_video/en/Pop/" target="_blank" class="externalLink" rel="nofollow">Pop</a><br>
<b><b><b><b>RIP FROM <a href="http://www.vip-files.net/hq_music_video/en/dvd/dtvideos_extended_vol_01/Usher-Feat-Will-I-Am-video-vob-OMG-Extended-Version_41447.html" target="_blank" class="externalLink" rel="nofollow">vip files.net</a></b></b></b><br>
<br>
[/URL]
<div class="bbCodeBlock bbCodeVfcHH HiddenContent">
<div class="attribution type">Hidden Content:</div>
<blockquote>You must reply before you can see the hidden data contained here.</blockquote>
</div></b>
<div class="messageTextEndMarker">&nbsp;</div>
</blockquote>
</article>]]></description>
                <author><![CDATA[gamerfronts]]></author>
                </item>

                
                <item>
                <title><![CDATA[【HD Live Performances】HDTV - Zara Larsson - You Love Who You Love -  Michael McIntyre's Big Show HDTV harmonizer54]]></title>
                <link><![CDATA[https://sharemania.us/threads/zara-larsson-you-love-who-you-love-michael-mcintyres-big-show-hdtv-harmonizer54.237455/]]></link>
                <description><![CDATA[<article>
<blockquote class="messageText SelectQuoteContainer ugc baseHtml">
<img src="https://i.imgur.com/1Es0sym.jpg" class="bbCodeImage LbImage" alt="[​IMG]" data-url="https://i.imgur.com/1Es0sym.jpg" style=""><br>
<br>
<div class="bbCodeBlock bbCodeCode">
<div class="type">Code:</div>
<pre>General
Unique ID                      : 217671146591872027858992358853924074690 (0xA3C1F01BDAF89618D4887482B1E3B4C2)
Complete name                  : C:\Users\Zara Larsson - You Love Who You Love -  Michael McIntyre's Big Show HDTV harmonizer54.ts
Format                         : Matroska
Format version                 : Version 4
File size                      : 186 MiB
Duration                       : 3 min 45 s
Overall bit rate               : 6 927 kb/s
Frame rate                     : 25.000 FPS
Movie name                     : Zara Larsson - You Love Who You Love -  Michael McIntyre's Big Show HDTV harmonizer54
Encoded date                   : 2024-02-10 19:43:24 UTC
Writing application            : mkvmerge v82.0 ('I'm The President') 64-bit
Writing library                : libebml v1.4.5 + libmatroska v1.7.1
FileExtension_Invalid          : mkv mk3d mka mks

Video
ID                             : 1
Format                         : AVC
Format/Info                    : Advanced Video Codec
Format profile                 : High@L4
Format settings                : CABAC / 4 Ref Frames
Format settings, CABAC         : Yes
Format settings, Reference fra : 4 frames
Codec ID                       : V_MPEG4/ISO/AVC
Duration                       : 3 min 41 s
Bit rate                       : 6 819 kb/s
Width                          : 1 920 pixels
Height                         : 1 080 pixels
Display aspect ratio           : 16:9
Active Format Description      : Letterbox 16:9 image, with alternative 14:9 center
Frame rate mode                : Variable
Frame rate                     : 25.000 FPS
Standard                       : Component
Color space                    : YUV
Chroma subsampling             : 4:2:0
Bit depth                      : 8 bits
Scan type                      : MBAFF
Scan type, store method        : Separated fields
Scan order                     : Top Field First
Bits/(Pixel*Frame)             : 0.072
Stream size                    : 180 MiB (97%)
Default                        : Yes
Forced                         : No
Color range                    : Limited
Color primaries                : BT.709
Transfer characteristics       : BT.709
Matrix coefficients            : BT.709

Audio
ID                             : 2
Format                         : AC-3
Format/Info                    : Audio Coding 3
Commercial name                : Dolby Digital
Codec ID                       : A_AC3
Duration                       : 3 min 42 s
Bit rate mode                  : Constant
Bit rate                       : 192 kb/s
Channel(s)                     : 2 channels
Channel layout                 : L R
Sampling rate                  : 48.0 kHz
Frame rate                     : 31.250 FPS (1536 SPF)
Compression mode               : Lossy
Delay relative to video        : 99 ms
Stream size                    : 5.08 MiB (3%)
Language                       : English
Service kind                   : Complete Main
Default                        : Yes
Forced                         : No

Text
ID                             : 3
Format                         : DVB Subtitle
Muxing mode                    : zlib
Codec ID                       : S_DVBSUB
Codec ID/Info                  : Picture based subtitle format used on DVBs
Duration                       : 3 min 41 s
Bit rate                       : 15.9 kb/s
Frame rate                     : 0.316 FPS
Count of elements              : 70
Stream size                    : 431 KiB (0%)
Language                       : English
Default                        : Yes
Forced                         : No

</pre>
</div>Ripped by me!<br>
<br>
<div class="bbCodeBlock bbCodeVfcHH HiddenContent">
<div class="attribution type">Hidden Content:</div>
<blockquote>You must reply before you can see the hidden data contained here.</blockquote>
</div>
<div class="messageTextEndMarker">&nbsp;</div>
</blockquote>
</article>]]></description>
                <author><![CDATA[harmonizer54]]></author>
                </item>

                
                <item>
                <title><![CDATA[【Requests】[REQ VID] - Qualquer DVD nacional]]></title>
                <link><![CDATA[https://sharemania.us/threads/qualquer-dvd-nacional.237456/]]></link>
                <description><![CDATA[<article>
<blockquote class="messageText SelectQuoteContainer ugc baseHtml">
Thanks<img src="styles/default/xenforo/smilies/big_smile-48.png" class="mceSmilie" alt=":)" title="Smile    :)">
<div class="messageTextEndMarker">&nbsp;</div>
</blockquote>
</article>]]></description>
                <author><![CDATA[JaH]]></author>
                </item>

                </channel></rss>